<svg xmlns="http://www.w3.org/2000/svg" xmlns:xlink="http://www.w3.org/1999/xlink" width="500" zoomAndPan="magnify" viewBox="0 0 375 374.999991" height="500" preserveAspectRatio="xMidYMid meet" version="1.0"><defs><g/><clipPath id="f96e4679be"><path d="M 143.167969 130.371094 L 231.667969 130.371094 L 231.667969 186 L 143.167969 186 Z M 143.167969 130.371094 " clip-rule="nonzero"/></clipPath><clipPath id="a5a9b9c287"><path d="M 165 140 L 211 140 L 211 186.621094 L 165 186.621094 Z M 165 140 " clip-rule="nonzero"/></clipPath><clipPath id="f0ae4a6548"><path d="M 165 140 L 212 140 L 212 186.621094 L 165 186.621094 Z M 165 140 " clip-rule="nonzero"/></clipPath></defs><path fill="#bf994d" d="M 181.4375 171.125 C 179.375 169.28125 178.074219 166.597656 178.074219 163.609375 C 178.074219 163.359375 178.082031 163.105469 178.101562 162.859375 C 178.121094 162.828125 178.144531 162.804688 178.164062 162.777344 C 178.242188 162.675781 178.324219 162.574219 178.402344 162.476562 C 178.433594 162.4375 178.46875 162.398438 178.5 162.359375 C 178.574219 162.269531 178.648438 162.183594 178.722656 162.097656 C 178.765625 162.046875 178.808594 161.992188 178.851562 161.941406 C 178.917969 161.871094 178.984375 161.796875 179.050781 161.722656 C 179.117188 161.644531 179.1875 161.570312 179.257812 161.496094 C 179.296875 161.449219 179.339844 161.40625 179.382812 161.363281 C 180.660156 160.019531 181.957031 159.09375 183.199219 158.46875 C 182.191406 159.675781 181.59375 160.910156 181.253906 161.832031 C 180.207031 164.652344 180.269531 167.769531 181.4375 171.125 " fill-opacity="1" fill-rule="nonzero"/><path fill="#bf994d" d="M 178.410156 161.410156 C 178.371094 161.457031 178.328125 161.503906 178.285156 161.554688 C 178.929688 158.453125 180.996094 155.871094 183.777344 154.53125 C 183.820312 154.539062 183.863281 154.542969 183.902344 154.550781 C 183.957031 154.558594 184.007812 154.566406 184.0625 154.574219 C 186.636719 154.957031 188.601562 155.761719 190.105469 156.746094 C 189.472656 156.636719 188.824219 156.582031 188.164062 156.582031 C 187.097656 156.582031 185.855469 156.730469 184.523438 157.175781 L 184.511719 157.175781 C 184.472656 157.191406 184.433594 157.203125 184.394531 157.21875 L 184.359375 157.230469 C 182.207031 157.980469 180.230469 159.363281 178.460938 161.351562 L 178.410156 161.410156 " fill-opacity="1" fill-rule="nonzero"/><path fill="#bf994d" d="M 191.3125 173.175781 C 190.320312 173.507812 189.253906 173.683594 188.148438 173.683594 C 186.046875 173.683594 184.097656 173.042969 182.484375 171.941406 C 182.464844 171.894531 182.445312 171.851562 182.429688 171.8125 C 182.402344 171.742188 182.371094 171.667969 182.347656 171.601562 C 181.410156 169.207031 181.128906 167.121094 181.230469 165.339844 C 181.769531 166.8125 182.539062 167.9375 183.164062 168.691406 C 185.085938 171.011719 187.820312 172.511719 191.3125 173.175781 " fill-opacity="1" fill-rule="nonzero"/><path fill="#bf994d" d="M 185.003906 154.039062 C 185.992188 153.710938 187.050781 153.535156 188.148438 153.535156 C 190.253906 153.535156 192.207031 154.179688 193.820312 155.28125 C 193.835938 155.320312 193.851562 155.351562 193.863281 155.386719 C 193.894531 155.460938 193.921875 155.53125 193.949219 155.605469 C 194.078125 155.933594 194.195312 156.261719 194.300781 156.578125 L 194.3125 156.605469 C 194.960938 158.589844 195.15625 160.34375 195.066406 161.871094 C 194.527344 160.398438 193.757812 159.273438 193.136719 158.519531 C 191.214844 156.203125 188.488281 154.703125 185.003906 154.039062 " fill-opacity="1" fill-rule="nonzero"/><path fill="#bf994d" d="M 197.878906 165.8125 C 197.925781 165.761719 197.96875 165.707031 198.015625 165.65625 C 197.375 168.757812 195.3125 171.339844 192.535156 172.683594 C 192.492188 172.675781 192.449219 172.671875 192.40625 172.664062 C 192.332031 172.652344 192.257812 172.640625 192.179688 172.628906 C 191.828125 172.578125 191.488281 172.515625 191.15625 172.449219 L 191.132812 172.441406 C 189.089844 172.011719 187.472656 171.304688 186.191406 170.464844 C 186.828125 170.574219 187.476562 170.628906 188.136719 170.628906 C 189.203125 170.628906 190.445312 170.480469 191.78125 170.035156 L 191.796875 170.03125 C 191.835938 170.015625 191.875 170.003906 191.917969 169.988281 L 191.929688 169.984375 C 194.089844 169.234375 196.074219 167.847656 197.847656 165.847656 L 197.878906 165.8125 " fill-opacity="1" fill-rule="nonzero"/><path fill="#bf994d" d="M 198.222656 163.609375 C 198.222656 163.859375 198.214844 164.105469 198.195312 164.351562 C 198.175781 164.382812 198.152344 164.414062 198.128906 164.441406 C 198.054688 164.539062 197.976562 164.632812 197.902344 164.726562 C 197.863281 164.773438 197.828125 164.820312 197.789062 164.867188 C 197.722656 164.949219 197.652344 165.03125 197.582031 165.109375 C 197.53125 165.171875 197.480469 165.230469 197.425781 165.289062 C 197.371094 165.355469 197.3125 165.417969 197.257812 165.484375 C 197.171875 165.578125 197.085938 165.671875 197 165.761719 C 196.972656 165.789062 196.949219 165.816406 196.921875 165.84375 C 195.640625 167.1875 194.34375 168.117188 193.097656 168.746094 C 194.109375 167.539062 194.707031 166.300781 195.046875 165.378906 C 196.089844 162.5625 196.027344 159.449219 194.863281 156.101562 C 196.925781 157.945312 198.222656 160.625 198.222656 163.609375 " fill-opacity="1" fill-rule="nonzero"/><g clip-path="url(#f96e4679be)"><path fill="#bf994d" d="M 230.792969 185.867188 C 230.792969 185.867188 230.773438 185.15625 230.734375 183.824219 C 230.695312 182.488281 230.625 180.535156 230.570312 178.046875 C 230.511719 175.558594 230.441406 172.535156 230.363281 169.070312 C 230.289062 165.605469 230.207031 161.691406 230.144531 157.425781 C 230.074219 153.164062 229.996094 148.539062 229.949219 143.652344 L 229.941406 143.191406 L 229.941406 142.964844 L 229.929688 142.777344 L 229.914062 142.546875 C 229.910156 142.46875 229.894531 142.429688 229.886719 142.371094 L 229.859375 142.210938 C 229.847656 142.152344 229.828125 142.089844 229.8125 142.03125 C 229.683594 141.550781 229.453125 141.09375 229.136719 140.699219 C 228.511719 139.90625 227.53125 139.402344 226.515625 139.359375 L 226.324219 139.351562 L 226.074219 139.347656 L 225.585938 139.34375 C 225.261719 139.335938 224.941406 139.332031 224.613281 139.328125 C 223.964844 139.3125 223.3125 139.296875 222.65625 139.285156 C 221.34375 139.25 220.015625 139.207031 218.679688 139.15625 C 216.003906 139.046875 213.289062 138.914062 210.523438 138.679688 C 209.140625 138.554688 207.753906 138.421875 206.332031 138.191406 C 205.609375 138.054688 204.902344 137.953125 204.109375 137.644531 C 203.390625 137.375 202.722656 137.050781 202.0625 136.679688 C 201.402344 136.308594 200.761719 135.890625 200.136719 135.332031 C 199.832031 135.042969 199.507812 134.703125 199.246094 134.242188 L 198.75 133.328125 C 198.601562 133.058594 198.449219 132.851562 198.335938 132.746094 C 198.210938 132.648438 198.179688 132.628906 198.046875 132.617188 L 197.996094 132.613281 C 197.980469 132.609375 197.914062 132.613281 197.878906 132.613281 L 197.082031 132.613281 L 196.019531 132.617188 C 193.1875 132.621094 190.34375 132.628906 187.5 132.636719 C 184.65625 132.628906 181.8125 132.625 178.980469 132.617188 L 177.386719 132.613281 L 177.054688 132.613281 C 176.972656 132.613281 177.09375 132.609375 177.058594 132.613281 L 176.925781 132.621094 C 176.835938 132.628906 176.777344 132.652344 176.664062 132.746094 C 176.550781 132.855469 176.398438 133.058594 176.25 133.328125 L 175.75 134.25 C 175.554688 134.613281 175.152344 135.074219 174.863281 135.332031 C 174.238281 135.890625 173.597656 136.308594 172.9375 136.679688 C 172.277344 137.050781 171.609375 137.375 170.890625 137.644531 C 170.535156 137.777344 170.144531 137.902344 169.726562 137.988281 C 169.382812 138.054688 169.050781 138.128906 168.699219 138.1875 L 167.613281 138.351562 C 167.25 138.402344 166.910156 138.433594 166.558594 138.476562 C 165.855469 138.5625 165.164062 138.617188 164.472656 138.683594 C 161.710938 138.914062 158.992188 139.050781 156.320312 139.15625 C 154.980469 139.210938 153.65625 139.25 152.34375 139.285156 C 151.6875 139.300781 151.035156 139.316406 150.382812 139.332031 C 150.058594 139.335938 149.734375 139.34375 149.410156 139.347656 L 148.925781 139.351562 L 148.710938 139.355469 L 148.472656 139.363281 C 148.289062 139.363281 148.203125 139.390625 148.089844 139.402344 C 147.984375 139.410156 147.855469 139.453125 147.734375 139.480469 C 147.488281 139.542969 147.253906 139.640625 147.027344 139.75 C 146.574219 139.976562 146.179688 140.308594 145.863281 140.703125 C 145.546875 141.09375 145.320312 141.550781 145.191406 142.03125 C 145.152344 142.152344 145.132812 142.273438 145.113281 142.398438 C 145.085938 142.519531 145.082031 142.644531 145.074219 142.769531 C 145.070312 142.835938 145.0625 142.886719 145.0625 142.964844 L 145.058594 143.191406 L 145.050781 143.652344 C 145.023438 146.097656 144.992188 148.472656 144.964844 150.773438 C 144.929688 153.074219 144.890625 155.292969 144.855469 157.425781 C 144.792969 161.691406 144.710938 165.605469 144.640625 169.070312 C 144.558594 172.535156 144.488281 175.558594 144.429688 178.046875 C 144.375 180.535156 144.304688 182.488281 144.265625 183.824219 C 144.226562 185.15625 144.203125 185.867188 144.203125 185.867188 C 144.203125 185.867188 144.183594 185.15625 144.144531 183.824219 C 144.105469 182.488281 144.035156 180.535156 143.976562 178.046875 C 143.917969 175.558594 143.851562 172.535156 143.769531 169.070312 C 143.695312 165.605469 143.613281 161.691406 143.550781 157.425781 C 143.515625 155.292969 143.480469 153.074219 143.441406 150.773438 C 143.414062 148.472656 143.386719 146.097656 143.355469 143.652344 L 143.351562 143.191406 L 143.347656 142.964844 C 143.34375 142.886719 143.351562 142.785156 143.355469 142.695312 C 143.359375 142.515625 143.367188 142.332031 143.398438 142.148438 C 143.421875 141.96875 143.453125 141.785156 143.503906 141.605469 C 143.675781 140.886719 144 140.199219 144.457031 139.605469 C 145.363281 138.402344 146.800781 137.597656 148.375 137.492188 C 149.664062 137.441406 150.964844 137.390625 152.28125 137.339844 C 153.582031 137.285156 154.898438 137.226562 156.226562 137.15625 C 158.878906 137.011719 161.574219 136.839844 164.277344 136.574219 C 164.949219 136.5 165.632812 136.4375 166.300781 136.347656 C 166.632812 136.300781 166.980469 136.261719 167.300781 136.210938 L 168.269531 136.054688 C 168.597656 135.996094 168.945312 135.921875 169.285156 135.851562 C 169.546875 135.796875 169.824219 135.710938 170.121094 135.597656 C 170.703125 135.375 171.296875 135.085938 171.855469 134.769531 C 172.414062 134.457031 172.945312 134.089844 173.367188 133.710938 C 173.589844 133.488281 173.667969 133.425781 173.820312 133.175781 C 173.972656 132.898438 174.128906 132.582031 174.320312 132.234375 C 174.515625 131.894531 174.753906 131.5 175.152344 131.117188 C 175.554688 130.738281 176.167969 130.429688 176.789062 130.398438 L 176.921875 130.390625 L 177.054688 130.386719 L 177.917969 130.386719 L 178.980469 130.382812 C 181.8125 130.375 184.65625 130.371094 187.5 130.363281 C 190.34375 130.371094 193.1875 130.378906 196.019531 130.382812 L 197.082031 130.386719 L 197.878906 130.386719 C 197.925781 130.386719 197.953125 130.386719 198.023438 130.390625 L 198.238281 130.402344 C 198.519531 130.421875 198.828125 130.5 199.109375 130.625 C 199.398438 130.75 199.636719 130.933594 199.84375 131.121094 C 200.242188 131.5 200.484375 131.894531 200.675781 132.234375 C 200.773438 132.40625 200.859375 132.574219 200.941406 132.730469 L 201.183594 133.179688 C 201.269531 133.332031 201.425781 133.515625 201.628906 133.710938 C 202.050781 134.089844 202.582031 134.457031 203.144531 134.773438 C 203.703125 135.085938 204.292969 135.378906 204.878906 135.597656 C 205.382812 135.816406 206.0625 135.921875 206.699219 136.054688 C 208.015625 136.285156 209.371094 136.4375 210.71875 136.578125 C 213.421875 136.84375 216.121094 137.015625 218.769531 137.160156 C 220.097656 137.230469 221.414062 137.289062 222.71875 137.34375 C 224.039062 137.394531 225.34375 137.445312 226.632812 137.496094 C 227.40625 137.550781 228.160156 137.773438 228.828125 138.140625 C 229.503906 138.5 230.082031 139.011719 230.539062 139.605469 C 230.996094 140.203125 231.320312 140.890625 231.492188 141.609375 C 231.515625 141.699219 231.539062 141.785156 231.554688 141.878906 L 231.597656 142.175781 C 231.609375 142.269531 231.628906 142.382812 231.628906 142.460938 L 231.640625 142.691406 L 231.644531 142.804688 L 231.648438 142.863281 L 231.648438 142.964844 L 231.644531 143.191406 L 231.640625 143.652344 C 231.589844 148.539062 231.515625 153.164062 231.445312 157.425781 C 231.382812 161.691406 231.300781 165.605469 231.226562 169.070312 C 231.148438 172.535156 231.078125 175.558594 231.019531 178.046875 C 230.960938 180.535156 230.890625 182.488281 230.855469 183.824219 C 230.816406 185.15625 230.792969 185.867188 230.792969 185.867188 " fill-opacity="1" fill-rule="nonzero"/></g><g clip-path="url(#a5a9b9c287)"><path fill="#bf994d" d="M 188.152344 140.890625 C 175.621094 140.890625 165.429688 151.082031 165.429688 163.609375 C 165.429688 176.136719 175.621094 186.332031 188.152344 186.332031 C 200.679688 186.332031 210.871094 176.136719 210.871094 163.609375 C 210.871094 151.082031 200.679688 140.890625 188.152344 140.890625 Z M 188.152344 184.703125 C 176.519531 184.703125 167.058594 175.238281 167.058594 163.609375 C 167.058594 151.980469 176.519531 142.519531 188.152344 142.519531 C 199.78125 142.519531 209.242188 151.980469 209.242188 163.609375 C 209.242188 175.238281 199.78125 184.703125 188.152344 184.703125 " fill-opacity="1" fill-rule="nonzero"/></g><g clip-path="url(#f0ae4a6548)"><path fill="#bf994d" d="M 186.699219 140.507812 C 186.460938 140.523438 186.285156 140.722656 186.296875 140.960938 C 186.3125 141.195312 186.515625 141.375 186.75 141.359375 C 186.984375 141.34375 187.164062 141.140625 187.148438 140.90625 C 187.132812 140.671875 186.933594 140.492188 186.699219 140.507812 Z M 185.25 140.644531 C 185.015625 140.671875 184.851562 140.886719 184.882812 141.121094 C 184.910156 141.351562 185.125 141.519531 185.355469 141.488281 C 185.589844 141.460938 185.757812 141.246094 185.726562 141.011719 C 185.699219 140.78125 185.484375 140.613281 185.25 140.644531 Z M 183.816406 140.871094 C 183.585938 140.914062 183.433594 141.136719 183.476562 141.367188 C 183.519531 141.601562 183.742188 141.75 183.972656 141.707031 C 184.207031 141.664062 184.359375 141.441406 184.3125 141.207031 C 184.269531 140.976562 184.046875 140.824219 183.816406 140.871094 Z M 182.394531 141.1875 C 182.167969 141.246094 182.03125 141.476562 182.089844 141.707031 C 182.148438 141.933594 182.378906 142.070312 182.609375 142.011719 C 182.835938 141.953125 182.972656 141.722656 182.914062 141.492188 C 182.855469 141.265625 182.625 141.128906 182.394531 141.1875 Z M 181 141.59375 C 180.777344 141.664062 180.652344 141.90625 180.726562 142.128906 C 180.800781 142.355469 181.042969 142.476562 181.265625 142.402344 C 181.488281 142.332031 181.609375 142.089844 181.539062 141.867188 C 181.464844 141.640625 181.222656 141.519531 181 141.59375 Z M 179.628906 142.085938 C 179.410156 142.171875 179.304688 142.421875 179.390625 142.640625 C 179.480469 142.859375 179.726562 142.964844 179.945312 142.878906 C 180.164062 142.792969 180.273438 142.542969 180.183594 142.324219 C 180.097656 142.105469 179.847656 142 179.628906 142.085938 Z M 178.296875 142.664062 C 178.082031 142.765625 177.992188 143.019531 178.09375 143.234375 C 178.191406 143.445312 178.445312 143.539062 178.660156 143.4375 C 178.875 143.335938 178.964844 143.082031 178.863281 142.871094 C 178.761719 142.65625 178.507812 142.566406 178.296875 142.664062 Z M 177 143.328125 C 176.792969 143.441406 176.71875 143.703125 176.832031 143.910156 C 176.945312 144.113281 177.207031 144.1875 177.414062 144.074219 C 177.617188 143.960938 177.695312 143.703125 177.578125 143.496094 C 177.464844 143.289062 177.207031 143.214844 177 143.328125 Z M 175.75 144.070312 C 175.550781 144.199219 175.492188 144.460938 175.621094 144.660156 C 175.746094 144.859375 176.007812 144.917969 176.207031 144.789062 C 176.40625 144.664062 176.464844 144.398438 176.339844 144.203125 C 176.210938 144.003906 175.949219 143.945312 175.75 144.070312 Z M 174.546875 144.890625 C 174.359375 145.027344 174.316406 145.296875 174.453125 145.488281 C 174.59375 145.675781 174.859375 145.71875 175.050781 145.578125 C 175.242188 145.441406 175.285156 145.175781 175.144531 144.984375 C 175.003906 144.792969 174.738281 144.75 174.546875 144.890625 Z M 173.402344 145.78125 C 173.21875 145.933594 173.191406 146.203125 173.34375 146.382812 C 173.496094 146.566406 173.761719 146.589844 173.945312 146.4375 C 174.125 146.289062 174.152344 146.019531 174 145.839844 C 173.851562 145.65625 173.582031 145.632812 173.402344 145.78125 Z M 172.308594 146.746094 C 172.140625 146.90625 172.128906 147.175781 172.292969 147.347656 C 172.453125 147.519531 172.722656 147.527344 172.894531 147.367188 C 173.066406 147.207031 173.074219 146.9375 172.914062 146.761719 C 172.753906 146.59375 172.484375 146.582031 172.308594 146.746094 Z M 171.285156 147.773438 C 171.121094 147.945312 171.128906 148.214844 171.300781 148.375 C 171.472656 148.535156 171.742188 148.527344 171.90625 148.355469 C 172.066406 148.183594 172.058594 147.914062 171.886719 147.753906 C 171.714844 147.59375 171.445312 147.601562 171.285156 147.773438 Z M 170.320312 148.863281 C 170.171875 149.042969 170.195312 149.3125 170.378906 149.464844 C 170.558594 149.613281 170.828125 149.585938 170.976562 149.40625 C 171.128906 149.222656 171.101562 148.957031 170.921875 148.804688 C 170.738281 148.65625 170.472656 148.679688 170.320312 148.863281 Z M 169.429688 150.007812 C 169.292969 150.199219 169.332031 150.464844 169.523438 150.605469 C 169.714844 150.742188 169.980469 150.703125 170.121094 150.511719 C 170.257812 150.320312 170.214844 150.054688 170.027344 149.914062 C 169.835938 149.777344 169.570312 149.820312 169.429688 150.007812 Z M 168.613281 151.207031 C 168.484375 151.40625 168.542969 151.671875 168.742188 151.796875 C 168.941406 151.925781 169.203125 151.867188 169.332031 151.667969 C 169.457031 151.46875 169.398438 151.207031 169.199219 151.078125 C 169.003906 150.953125 168.738281 151.011719 168.613281 151.207031 Z M 167.871094 152.457031 C 167.757812 152.664062 167.832031 152.921875 168.039062 153.039062 C 168.242188 153.152344 168.503906 153.078125 168.617188 152.871094 C 168.730469 152.664062 168.65625 152.40625 168.449219 152.289062 C 168.242188 152.175781 167.984375 152.25 167.871094 152.457031 Z M 167.207031 153.75 C 167.109375 153.960938 167.199219 154.21875 167.410156 154.316406 C 167.625 154.417969 167.878906 154.328125 167.980469 154.113281 C 168.082031 153.902344 167.988281 153.648438 167.777344 153.546875 C 167.5625 153.445312 167.308594 153.539062 167.207031 153.75 Z M 166.628906 155.082031 C 166.542969 155.300781 166.648438 155.546875 166.867188 155.636719 C 167.085938 155.722656 167.335938 155.613281 167.421875 155.394531 C 167.511719 155.175781 167.402344 154.929688 167.183594 154.84375 C 166.964844 154.753906 166.71875 154.863281 166.628906 155.082031 Z M 166.136719 156.449219 C 166.0625 156.671875 166.183594 156.914062 166.410156 156.988281 C 166.632812 157.058594 166.875 156.9375 166.945312 156.714844 C 167.019531 156.488281 166.898438 156.25 166.671875 156.175781 C 166.449219 156.101562 166.210938 156.226562 166.136719 156.449219 Z M 165.730469 157.84375 C 165.671875 158.074219 165.808594 158.304688 166.035156 158.363281 C 166.265625 158.421875 166.496094 158.285156 166.554688 158.054688 C 166.613281 157.828125 166.476562 157.597656 166.25 157.539062 C 166.019531 157.480469 165.789062 157.617188 165.730469 157.84375 Z M 165.410156 159.261719 C 165.367188 159.496094 165.519531 159.71875 165.75 159.761719 C 165.980469 159.804688 166.203125 159.652344 166.25 159.421875 C 166.292969 159.191406 166.140625 158.96875 165.910156 158.921875 C 165.679688 158.878906 165.457031 159.03125 165.410156 159.261719 Z M 165.183594 160.699219 C 165.15625 160.929688 165.320312 161.144531 165.554688 161.175781 C 165.789062 161.203125 166 161.039062 166.03125 160.804688 C 166.0625 160.570312 165.894531 160.359375 165.660156 160.328125 C 165.425781 160.300781 165.214844 160.464844 165.183594 160.699219 Z M 165.050781 162.144531 C 165.035156 162.378906 165.210938 162.582031 165.449219 162.597656 C 165.683594 162.609375 165.886719 162.433594 165.898438 162.199219 C 165.914062 161.960938 165.734375 161.761719 165.5 161.746094 C 165.265625 161.730469 165.0625 161.910156 165.050781 162.144531 Z M 165.003906 163.597656 C 165.003906 163.832031 165.191406 164.023438 165.429688 164.023438 C 165.664062 164.023438 165.855469 163.832031 165.855469 163.597656 C 165.855469 163.363281 165.664062 163.171875 165.429688 163.171875 C 165.191406 163.171875 165.003906 163.363281 165.003906 163.597656 Z M 165.046875 165.050781 C 165.0625 165.285156 165.261719 165.464844 165.5 165.449219 C 165.734375 165.433594 165.910156 165.230469 165.898438 164.996094 C 165.882812 164.761719 165.679688 164.582031 165.445312 164.597656 C 165.210938 164.613281 165.03125 164.816406 165.046875 165.050781 Z M 165.179688 166.496094 C 165.210938 166.730469 165.425781 166.894531 165.65625 166.867188 C 165.890625 166.835938 166.058594 166.625 166.027344 166.390625 C 166 166.15625 165.785156 165.992188 165.550781 166.019531 C 165.316406 166.050781 165.152344 166.261719 165.183594 166.496094 Z M 165.40625 167.933594 C 165.449219 168.164062 165.675781 168.316406 165.90625 168.269531 C 166.136719 168.226562 166.289062 168.003906 166.246094 167.773438 C 166.203125 167.542969 165.976562 167.390625 165.746094 167.433594 C 165.515625 167.476562 165.363281 167.699219 165.40625 167.933594 Z M 165.722656 169.351562 C 165.78125 169.578125 166.015625 169.71875 166.242188 169.660156 C 166.46875 169.601562 166.609375 169.367188 166.550781 169.140625 C 166.492188 168.910156 166.257812 168.773438 166.03125 168.832031 C 165.800781 168.890625 165.664062 169.125 165.722656 169.351562 Z M 166.128906 170.746094 C 166.199219 170.972656 166.441406 171.09375 166.664062 171.019531 C 166.890625 170.949219 167.011719 170.707031 166.9375 170.484375 C 166.867188 170.257812 166.625 170.136719 166.402344 170.210938 C 166.179688 170.28125 166.054688 170.523438 166.128906 170.746094 Z M 166.621094 172.117188 C 166.707031 172.335938 166.957031 172.441406 167.175781 172.355469 C 167.394531 172.269531 167.5 172.023438 167.414062 171.804688 C 167.328125 171.585938 167.078125 171.476562 166.859375 171.5625 C 166.640625 171.652344 166.535156 171.898438 166.621094 172.117188 Z M 167.199219 173.453125 C 167.300781 173.664062 167.554688 173.757812 167.769531 173.65625 C 167.980469 173.554688 168.074219 173.300781 167.972656 173.089844 C 167.871094 172.875 167.617188 172.785156 167.40625 172.882812 C 167.191406 172.984375 167.101562 173.238281 167.199219 173.453125 Z M 167.863281 174.746094 C 167.976562 174.953125 168.234375 175.027344 168.441406 174.914062 C 168.648438 174.800781 168.722656 174.542969 168.609375 174.335938 C 168.496094 174.128906 168.234375 174.054688 168.03125 174.167969 C 167.824219 174.28125 167.75 174.542969 167.863281 174.746094 Z M 168.605469 176 C 168.730469 176.199219 168.996094 176.257812 169.191406 176.128906 C 169.390625 176.003906 169.449219 175.742188 169.324219 175.542969 C 169.199219 175.34375 168.933594 175.285156 168.734375 175.410156 C 168.535156 175.539062 168.476562 175.800781 168.605469 176 Z M 169.421875 177.199219 C 169.5625 177.390625 169.828125 177.433594 170.019531 177.296875 C 170.210938 177.15625 170.25 176.890625 170.113281 176.699219 C 169.972656 176.507812 169.707031 176.46875 169.515625 176.605469 C 169.328125 176.746094 169.285156 177.011719 169.421875 177.203125 Z M 170.316406 178.347656 C 170.464844 178.53125 170.734375 178.554688 170.914062 178.40625 C 171.097656 178.257812 171.121094 177.988281 170.972656 177.804688 C 170.820312 177.625 170.550781 177.597656 170.371094 177.75 C 170.1875 177.898438 170.164062 178.167969 170.316406 178.347656 Z M 171.277344 179.441406 C 171.4375 179.613281 171.707031 179.621094 171.878906 179.457031 C 172.050781 179.296875 172.058594 179.027344 171.898438 178.855469 C 171.738281 178.683594 171.464844 178.675781 171.296875 178.835938 C 171.125 179 171.117188 179.269531 171.277344 179.441406 Z M 172.304688 180.46875 C 172.476562 180.628906 172.746094 180.621094 172.90625 180.449219 C 173.066406 180.277344 173.058594 180.007812 172.886719 179.847656 C 172.714844 179.683594 172.445312 179.695312 172.285156 179.863281 C 172.125 180.039062 172.132812 180.308594 172.300781 180.46875 Z M 173.390625 181.429688 C 173.574219 181.582031 173.84375 181.554688 173.992188 181.375 C 174.144531 181.191406 174.117188 180.925781 173.9375 180.773438 C 173.753906 180.625 173.488281 180.648438 173.335938 180.828125 C 173.183594 181.011719 173.210938 181.28125 173.390625 181.429688 Z M 174.539062 182.324219 C 174.730469 182.460938 174.996094 182.417969 175.132812 182.230469 C 175.273438 182.039062 175.230469 181.773438 175.042969 181.632812 C 174.851562 181.492188 174.585938 181.535156 174.445312 181.726562 C 174.308594 181.917969 174.347656 182.183594 174.539062 182.324219 Z M 175.738281 183.140625 C 175.9375 183.265625 176.199219 183.210938 176.328125 183.011719 C 176.453125 182.8125 176.394531 182.550781 176.195312 182.421875 C 176 182.296875 175.734375 182.355469 175.609375 182.550781 C 175.480469 182.75 175.539062 183.015625 175.738281 183.140625 Z M 176.988281 183.882812 C 177.191406 183.996094 177.453125 183.921875 177.566406 183.714844 C 177.679688 183.507812 177.605469 183.25 177.398438 183.136719 C 177.191406 183.023438 176.933594 183.097656 176.820312 183.304688 C 176.707031 183.507812 176.78125 183.769531 176.988281 183.882812 Z M 178.28125 184.546875 C 178.492188 184.644531 178.746094 184.554688 178.847656 184.34375 C 178.949219 184.128906 178.855469 183.875 178.644531 183.773438 C 178.429688 183.675781 178.175781 183.765625 178.074219 183.976562 C 177.976562 184.191406 178.066406 184.445312 178.28125 184.546875 Z M 179.609375 185.125 C 179.828125 185.210938 180.074219 185.105469 180.164062 184.886719 C 180.25 184.667969 180.144531 184.417969 179.925781 184.332031 C 179.707031 184.246094 179.457031 184.351562 179.371094 184.570312 C 179.285156 184.789062 179.390625 185.039062 179.609375 185.125 Z M 180.976562 185.621094 C 181.199219 185.691406 181.441406 185.570312 181.515625 185.347656 C 181.585938 185.121094 181.464844 184.882812 181.242188 184.808594 C 181.019531 184.734375 180.777344 184.859375 180.703125 185.082031 C 180.628906 185.304688 180.753906 185.546875 180.976562 185.621094 Z M 182.371094 186.027344 C 182.601562 186.085938 182.832031 185.949219 182.890625 185.71875 C 182.949219 185.492188 182.8125 185.261719 182.585938 185.199219 C 182.355469 185.140625 182.125 185.28125 182.066406 185.507812 C 182.007812 185.734375 182.144531 185.96875 182.371094 186.027344 Z M 183.789062 186.34375 C 184.023438 186.390625 184.246094 186.238281 184.289062 186.007812 C 184.332031 185.773438 184.179688 185.550781 183.949219 185.507812 C 183.71875 185.464844 183.496094 185.613281 183.449219 185.847656 C 183.40625 186.078125 183.558594 186.300781 183.789062 186.34375 Z M 185.226562 186.574219 C 185.460938 186.601562 185.671875 186.4375 185.703125 186.203125 C 185.730469 185.96875 185.566406 185.757812 185.332031 185.726562 C 185.097656 185.699219 184.886719 185.863281 184.855469 186.097656 C 184.828125 186.332031 184.992188 186.542969 185.226562 186.574219 Z M 186.671875 186.710938 C 186.90625 186.726562 187.109375 186.546875 187.125 186.3125 C 187.140625 186.074219 186.960938 185.875 186.726562 185.859375 C 186.492188 185.84375 186.289062 186.023438 186.273438 186.257812 C 186.257812 186.492188 186.4375 186.695312 186.671875 186.710938 Z M 188.125 186.757812 C 188.359375 186.757812 188.550781 186.566406 188.550781 186.332031 C 188.550781 186.097656 188.363281 185.902344 188.125 185.902344 C 187.890625 185.902344 187.699219 186.09375 187.699219 186.332031 C 187.699219 186.566406 187.890625 186.757812 188.125 186.757812 Z M 189.578125 186.714844 C 189.8125 186.699219 189.992188 186.496094 189.976562 186.261719 C 189.960938 186.027344 189.757812 185.847656 189.523438 185.863281 C 189.289062 185.875 189.109375 186.078125 189.125 186.3125 C 189.140625 186.550781 189.34375 186.726562 189.578125 186.714844 Z M 191.023438 186.578125 C 191.257812 186.550781 191.421875 186.335938 191.394531 186.105469 C 191.367188 185.871094 191.152344 185.703125 190.917969 185.734375 C 190.683594 185.761719 190.519531 185.976562 190.546875 186.207031 C 190.578125 186.441406 190.789062 186.609375 191.023438 186.578125 Z M 192.460938 186.355469 C 192.691406 186.308594 192.84375 186.085938 192.800781 185.855469 C 192.753906 185.625 192.53125 185.472656 192.300781 185.515625 C 192.070312 185.558594 191.917969 185.78125 191.960938 186.015625 C 192.003906 186.246094 192.226562 186.398438 192.460938 186.355469 Z M 193.878906 186.039062 C 194.105469 185.980469 194.246094 185.75 194.1875 185.519531 C 194.128906 185.292969 193.894531 185.152344 193.667969 185.214844 C 193.441406 185.269531 193.300781 185.503906 193.359375 185.730469 C 193.417969 185.960938 193.652344 186.097656 193.878906 186.039062 Z M 195.277344 185.636719 C 195.5 185.5625 195.621094 185.320312 195.550781 185.097656 C 195.476562 184.875 195.238281 184.75 195.011719 184.824219 C 194.789062 184.898438 194.664062 185.136719 194.738281 185.359375 C 194.8125 185.585938 195.050781 185.707031 195.277344 185.636719 Z M 196.644531 185.140625 C 196.863281 185.054688 196.972656 184.808594 196.882812 184.589844 C 196.796875 184.371094 196.550781 184.261719 196.332031 184.347656 C 196.113281 184.4375 196.003906 184.683594 196.089844 184.902344 C 196.179688 185.121094 196.425781 185.230469 196.644531 185.140625 Z M 197.980469 184.5625 C 198.195312 184.464844 198.285156 184.210938 198.183594 183.996094 C 198.085938 183.78125 197.832031 183.691406 197.617188 183.792969 C 197.402344 183.894531 197.3125 184.148438 197.414062 184.359375 C 197.515625 184.574219 197.769531 184.664062 197.980469 184.5625 Z M 199.277344 183.902344 C 199.484375 183.789062 199.558594 183.53125 199.445312 183.324219 C 199.332031 183.117188 199.070312 183.042969 198.867188 183.15625 C 198.660156 183.269531 198.585938 183.527344 198.699219 183.734375 C 198.8125 183.941406 199.070312 184.015625 199.277344 183.902344 Z M 200.527344 183.160156 C 200.726562 183.035156 200.785156 182.769531 200.660156 182.574219 C 200.535156 182.375 200.269531 182.316406 200.070312 182.441406 C 199.871094 182.566406 199.8125 182.832031 199.941406 183.03125 C 200.066406 183.230469 200.328125 183.289062 200.527344 183.160156 Z M 201.730469 182.34375 C 201.921875 182.203125 201.964844 181.9375 201.824219 181.75 C 201.6875 181.558594 201.417969 181.515625 201.230469 181.652344 C 201.039062 181.792969 200.996094 182.058594 201.136719 182.25 C 201.273438 182.441406 201.539062 182.484375 201.730469 182.34375 Z M 202.878906 181.453125 C 203.0625 181.300781 203.085938 181.035156 202.9375 180.851562 C 202.785156 180.671875 202.519531 180.644531 202.335938 180.796875 C 202.15625 180.945312 202.128906 181.214844 202.28125 181.394531 C 202.429688 181.578125 202.699219 181.601562 202.878906 181.453125 Z M 203.96875 180.492188 C 204.144531 180.332031 204.152344 180.058594 203.992188 179.890625 C 203.828125 179.71875 203.558594 179.707031 203.386719 179.871094 C 203.214844 180.03125 203.207031 180.300781 203.367188 180.472656 C 203.527344 180.644531 203.800781 180.652344 203.96875 180.492188 Z M 205 179.464844 C 205.160156 179.292969 205.152344 179.023438 204.980469 178.863281 C 204.808594 178.703125 204.539062 178.710938 204.378906 178.878906 C 204.21875 179.050781 204.226562 179.320312 204.398438 179.484375 C 204.566406 179.644531 204.835938 179.636719 205 179.464844 Z M 205.960938 178.375 C 206.113281 178.195312 206.085938 177.925781 205.90625 177.777344 C 205.726562 177.625 205.457031 177.652344 205.304688 177.832031 C 205.15625 178.011719 205.179688 178.28125 205.363281 178.433594 C 205.542969 178.582031 205.8125 178.558594 205.960938 178.375 Z M 206.855469 177.230469 C 206.996094 177.039062 206.953125 176.773438 206.761719 176.632812 C 206.570312 176.496094 206.304688 176.539062 206.167969 176.726562 C 206.027344 176.917969 206.070312 177.183594 206.257812 177.324219 C 206.449219 177.460938 206.714844 177.421875 206.855469 177.230469 Z M 207.675781 176.03125 C 207.800781 175.832031 207.742188 175.570312 207.542969 175.441406 C 207.347656 175.316406 207.082031 175.375 206.957031 175.570312 C 206.828125 175.769531 206.886719 176.035156 207.085938 176.160156 C 207.285156 176.289062 207.546875 176.230469 207.675781 176.03125 Z M 208.417969 174.785156 C 208.53125 174.578125 208.457031 174.316406 208.25 174.203125 C 208.046875 174.089844 207.785156 174.164062 207.671875 174.371094 C 207.554688 174.578125 207.632812 174.835938 207.835938 174.949219 C 208.042969 175.0625 208.300781 174.988281 208.417969 174.785156 Z M 209.078125 173.492188 C 209.179688 173.277344 209.089844 173.023438 208.878906 172.921875 C 208.664062 172.824219 208.410156 172.914062 208.308594 173.125 C 208.207031 173.339844 208.300781 173.59375 208.511719 173.695312 C 208.726562 173.796875 208.980469 173.703125 209.078125 173.492188 Z M 209.660156 172.160156 C 209.746094 171.941406 209.640625 171.695312 209.421875 171.605469 C 209.203125 171.519531 208.957031 171.625 208.867188 171.84375 C 208.78125 172.0625 208.886719 172.3125 209.105469 172.398438 C 209.324219 172.484375 209.574219 172.378906 209.660156 172.160156 Z M 210.15625 170.792969 C 210.230469 170.570312 210.105469 170.332031 209.882812 170.257812 C 209.660156 170.183594 209.417969 170.304688 209.34375 170.527344 C 209.273438 170.753906 209.394531 170.996094 209.617188 171.066406 C 209.839844 171.140625 210.082031 171.019531 210.15625 170.792969 Z M 210.5625 169.398438 C 210.621094 169.171875 210.484375 168.9375 210.257812 168.878906 C 210.03125 168.820312 209.796875 168.957031 209.738281 169.1875 L 209.738281 169.183594 C 209.679688 169.414062 209.816406 169.644531 210.042969 169.707031 C 210.273438 169.765625 210.503906 169.628906 210.5625 169.398438 Z M 210.882812 167.980469 C 210.925781 167.75 210.777344 167.527344 210.542969 167.480469 C 210.3125 167.4375 210.089844 167.589844 210.046875 167.820312 C 210 168.050781 210.152344 168.273438 210.382812 168.320312 C 210.613281 168.363281 210.835938 168.210938 210.882812 167.980469 Z M 211.109375 166.546875 C 211.140625 166.3125 210.976562 166.097656 210.742188 166.070312 C 210.507812 166.039062 210.292969 166.203125 210.265625 166.4375 C 210.234375 166.671875 210.398438 166.886719 210.632812 166.914062 C 210.867188 166.945312 211.082031 166.78125 211.109375 166.546875 Z M 211.25 165.101562 C 211.265625 164.863281 211.085938 164.660156 210.851562 164.648438 C 210.617188 164.632812 210.414062 164.808594 210.398438 165.046875 C 210.382812 165.28125 210.5625 165.484375 210.796875 165.496094 C 211.03125 165.511719 211.234375 165.335938 211.25 165.101562 Z M 211.296875 163.644531 C 211.296875 163.410156 211.105469 163.21875 210.871094 163.21875 C 210.636719 163.21875 210.445312 163.410156 210.445312 163.644531 C 210.445312 163.878906 210.632812 164.070312 210.871094 164.074219 C 211.105469 164.074219 211.296875 163.882812 211.296875 163.644531 Z M 211.253906 162.195312 C 211.238281 161.960938 211.039062 161.78125 210.800781 161.796875 C 210.566406 161.808594 210.386719 162.011719 210.402344 162.246094 C 210.417969 162.480469 210.617188 162.660156 210.855469 162.644531 C 211.089844 162.632812 211.269531 162.429688 211.253906 162.195312 Z M 211.121094 160.746094 C 211.09375 160.511719 210.878906 160.347656 210.644531 160.378906 C 210.410156 160.40625 210.246094 160.617188 210.273438 160.851562 C 210.300781 161.085938 210.515625 161.253906 210.75 161.222656 C 210.984375 161.195312 211.148438 160.980469 211.121094 160.746094 Z M 210.898438 159.3125 C 210.851562 159.078125 210.628906 158.929688 210.398438 158.972656 C 210.167969 159.015625 210.015625 159.238281 210.058594 159.46875 C 210.101562 159.699219 210.324219 159.851562 210.558594 159.808594 C 210.789062 159.765625 210.941406 159.542969 210.898438 159.3125 Z M 210.582031 157.894531 C 210.523438 157.664062 210.292969 157.527344 210.0625 157.585938 C 209.835938 157.644531 209.699219 157.875 209.757812 158.101562 C 209.8125 158.332031 210.046875 158.46875 210.273438 158.410156 C 210.503906 158.351562 210.640625 158.121094 210.582031 157.894531 Z M 210.179688 156.496094 C 210.105469 156.273438 209.863281 156.148438 209.640625 156.222656 C 209.417969 156.292969 209.292969 156.535156 209.367188 156.757812 C 209.441406 156.980469 209.679688 157.105469 209.902344 157.035156 C 210.128906 156.960938 210.25 156.71875 210.179688 156.496094 Z M 209.6875 155.125 C 209.601562 154.90625 209.351562 154.800781 209.132812 154.886719 C 208.914062 154.972656 208.808594 155.21875 208.894531 155.4375 C 208.980469 155.660156 209.226562 155.765625 209.445312 155.679688 C 209.664062 155.59375 209.773438 155.34375 209.6875 155.125 Z M 209.109375 153.789062 C 209.007812 153.578125 208.753906 153.484375 208.542969 153.585938 C 208.328125 153.683594 208.238281 153.941406 208.335938 154.152344 C 208.4375 154.367188 208.691406 154.457031 208.90625 154.355469 C 209.117188 154.257812 209.207031 154.003906 209.109375 153.789062 Z M 208.449219 152.492188 C 208.335938 152.285156 208.074219 152.210938 207.871094 152.324219 C 207.664062 152.4375 207.585938 152.699219 207.699219 152.902344 C 207.8125 153.109375 208.074219 153.183594 208.28125 153.070312 C 208.488281 152.957031 208.5625 152.699219 208.449219 152.492188 Z M 207.707031 151.242188 C 207.582031 151.042969 207.316406 150.984375 207.117188 151.109375 C 206.921875 151.234375 206.859375 151.5 206.988281 151.699219 C 207.113281 151.894531 207.378906 151.957031 207.578125 151.828125 C 207.773438 151.703125 207.835938 151.441406 207.707031 151.242188 Z M 206.890625 150.039062 C 206.753906 149.847656 206.484375 149.804688 206.292969 149.945312 C 206.105469 150.082031 206.0625 150.347656 206.199219 150.539062 C 206.339844 150.730469 206.605469 150.773438 206.796875 150.632812 C 206.988281 150.496094 207.027344 150.226562 206.890625 150.039062 Z M 206 148.890625 C 205.847656 148.707031 205.582031 148.679688 205.398438 148.832031 C 205.21875 148.980469 205.191406 149.25 205.34375 149.433594 C 205.492188 149.613281 205.761719 149.640625 205.941406 149.488281 C 206.125 149.339844 206.148438 149.070312 206 148.890625 Z M 205.039062 147.796875 C 204.878906 147.625 204.609375 147.617188 204.4375 147.777344 C 204.265625 147.9375 204.257812 148.207031 204.417969 148.378906 C 204.578125 148.550781 204.847656 148.5625 205.019531 148.398438 C 205.191406 148.238281 205.199219 147.96875 205.039062 147.796875 Z M 204.015625 146.769531 C 203.839844 146.605469 203.570312 146.613281 203.410156 146.785156 C 203.25 146.957031 203.257812 147.226562 203.429688 147.386719 C 203.601562 147.550781 203.871094 147.542969 204.03125 147.371094 C 204.191406 147.199219 204.183594 146.929688 204.015625 146.769531 Z M 202.925781 145.804688 C 202.746094 145.652344 202.476562 145.679688 202.324219 145.859375 C 202.175781 146.042969 202.199219 146.308594 202.378906 146.460938 C 202.5625 146.609375 202.832031 146.585938 202.980469 146.40625 C 203.132812 146.226562 203.105469 145.957031 202.925781 145.804688 Z M 201.78125 144.914062 C 201.589844 144.773438 201.324219 144.8125 201.183594 145.003906 C 201.046875 145.195312 201.085938 145.460938 201.277344 145.601562 C 201.464844 145.738281 201.734375 145.699219 201.871094 145.507812 C 202.011719 145.316406 201.96875 145.050781 201.78125 144.914062 Z M 200.582031 144.089844 C 200.382812 143.964844 200.121094 144.023438 199.992188 144.222656 C 199.863281 144.417969 199.925781 144.683594 200.121094 144.808594 C 200.320312 144.9375 200.585938 144.878906 200.710938 144.679688 C 200.839844 144.480469 200.777344 144.21875 200.582031 144.089844 Z M 199.335938 143.347656 C 199.128906 143.234375 198.867188 143.308594 198.753906 143.515625 C 198.640625 143.722656 198.714844 143.980469 198.921875 144.09375 C 199.125 144.207031 199.386719 144.132812 199.5 143.929688 C 199.613281 143.722656 199.539062 143.460938 199.335938 143.347656 Z M 198.042969 142.683594 C 197.828125 142.582031 197.574219 142.675781 197.472656 142.886719 C 197.375 143.101562 197.464844 143.355469 197.675781 143.457031 C 197.890625 143.554688 198.144531 143.464844 198.246094 143.253906 C 198.347656 143.039062 198.253906 142.785156 198.042969 142.683594 Z M 196.710938 142.105469 C 196.492188 142.015625 196.246094 142.121094 196.160156 142.339844 C 196.070312 142.558594 196.175781 142.808594 196.394531 142.894531 C 196.613281 142.984375 196.863281 142.875 196.949219 142.65625 C 197.035156 142.4375 196.929688 142.191406 196.710938 142.105469 Z M 195.34375 141.609375 C 195.121094 141.535156 194.882812 141.65625 194.808594 141.878906 C 194.734375 142.105469 194.855469 142.34375 195.078125 142.417969 C 195.304688 142.492188 195.542969 142.371094 195.617188 142.144531 C 195.691406 141.921875 195.570312 141.679688 195.34375 141.609375 Z M 193.949219 141.199219 C 193.722656 141.140625 193.488281 141.277344 193.429688 141.503906 C 193.371094 141.734375 193.507812 141.964844 193.738281 142.023438 C 193.964844 142.082031 194.195312 141.945312 194.257812 141.71875 C 194.316406 141.492188 194.179688 141.257812 193.949219 141.199219 Z M 192.53125 140.878906 C 192.300781 140.835938 192.078125 140.984375 192.035156 141.21875 C 191.988281 141.449219 192.140625 141.671875 192.371094 141.714844 C 192.601562 141.761719 192.828125 141.609375 192.871094 141.378906 C 192.914062 141.148438 192.765625 140.921875 192.535156 140.878906 Z M 191.097656 140.648438 C 190.863281 140.617188 190.648438 140.785156 190.621094 141.019531 C 190.589844 141.253906 190.753906 141.464844 190.988281 141.496094 C 191.222656 141.523438 191.4375 141.359375 191.464844 141.125 C 191.496094 140.890625 191.332031 140.679688 191.097656 140.648438 Z M 189.652344 140.511719 C 189.417969 140.496094 189.214844 140.671875 189.199219 140.910156 C 189.183594 141.144531 189.359375 141.347656 189.597656 141.363281 C 189.832031 141.375 190.035156 141.199219 190.050781 140.964844 C 190.0625 140.730469 189.886719 140.527344 189.652344 140.511719 Z M 188.199219 140.460938 C 187.960938 140.460938 187.773438 140.652344 187.773438 140.886719 C 187.769531 141.125 187.960938 141.316406 188.195312 141.316406 C 188.433594 141.316406 188.625 141.125 188.625 140.890625 C 188.625 140.65625 188.433594 140.460938 188.199219 140.460938 Z M 188.152344 140.460938 C 187.914062 140.460938 187.722656 140.652344 187.722656 140.890625 C 187.722656 141.125 187.914062 141.316406 188.152344 141.316406 C 188.386719 141.316406 188.578125 141.125 188.578125 140.890625 C 188.578125 140.652344 188.386719 140.460938 188.152344 140.460938 " fill-opacity="1" fill-rule="nonzero"/></g><path fill="#bf994d" d="M 188.148438 173.34375 C 182.773438 173.34375 178.414062 168.988281 178.414062 163.609375 C 178.414062 158.234375 182.773438 153.875 188.148438 153.875 C 193.523438 153.875 197.886719 158.234375 197.886719 163.609375 C 197.886719 168.988281 193.523438 173.34375 188.148438 173.34375 Z M 188.152344 150.265625 C 180.78125 150.265625 174.804688 156.242188 174.804688 163.609375 C 174.804688 170.980469 180.78125 176.957031 188.152344 176.957031 C 195.519531 176.957031 201.496094 170.980469 201.496094 163.609375 C 201.496094 156.242188 195.519531 150.265625 188.152344 150.265625 " fill-opacity="1" fill-rule="nonzero"/><path fill="#bf994d" d="M 188.148438 166.835938 C 186.367188 166.835938 184.921875 165.390625 184.921875 163.609375 C 184.921875 161.828125 186.367188 160.382812 188.148438 160.382812 C 189.929688 160.382812 191.375 161.828125 191.375 163.609375 C 191.375 165.390625 189.929688 166.835938 188.148438 166.835938 " fill-opacity="1" fill-rule="nonzero"/><path fill="#bf994d" d="M 159.714844 149.746094 C 159.714844 150.945312 158.746094 151.914062 157.546875 151.914062 L 153.09375 151.914062 C 151.894531 151.914062 150.925781 150.945312 150.925781 149.746094 L 150.925781 145.292969 C 150.925781 144.09375 151.894531 143.125 153.09375 143.125 L 157.546875 143.125 C 158.746094 143.125 159.714844 144.09375 159.714844 145.292969 L 159.714844 149.746094 " fill-opacity="1" fill-rule="nonzero"/><path fill="#bf994d" d="M 197.578125 136.066406 C 197.578125 136.65625 197.097656 137.132812 196.507812 137.132812 L 178.195312 137.132812 C 177.605469 137.132812 177.128906 136.65625 177.128906 136.066406 C 177.128906 135.476562 177.605469 135 178.195312 135 L 196.507812 135 C 197.097656 135 197.578125 135.476562 197.578125 136.066406 " fill-opacity="1" fill-rule="nonzero"/><g fill="#bf994d" fill-opacity="1"><g transform="translate(98.353215, 220.199165)"><g><path d="M 47.234375 -22.359375 C 47.234375 -21.910156 46.363281 -19.003906 44.625 -13.640625 C 42.863281 -8.367188 41.984375 -4.835938 41.984375 -3.046875 C 41.984375 -2.941406 41.984375 -2.804688 41.984375 -2.640625 C 41.984375 -2.484375 42.003906 -2.316406 42.046875 -2.140625 C 42.046875 -1.984375 42.046875 -1.828125 42.046875 -1.671875 C 42.046875 -1.523438 42.066406 -1.363281 42.109375 -1.1875 C 42.109375 -1.070312 41.972656 -0.945312 41.703125 -0.8125 C 41.566406 -0.769531 41.445312 -0.75 41.34375 -0.75 C 41.25 -0.75 41.15625 -0.75 41.0625 -0.75 C 40.769531 -0.789062 40.550781 -0.972656 40.40625 -1.296875 C 40.257812 -1.628906 40.1875 -2.160156 40.1875 -2.890625 C 40.1875 -3.816406 40.289062 -4.835938 40.5 -5.953125 C 40.71875 -7.078125 41.066406 -8.328125 41.546875 -9.703125 C 41.921875 -10.785156 42.316406 -11.878906 42.734375 -12.984375 C 43.160156 -14.097656 43.597656 -15.234375 44.046875 -16.390625 C 44.929688 -18.765625 45.382812 -20.539062 45.40625 -21.71875 C 45.40625 -22.550781 44.796875 -22.984375 43.578125 -23.015625 C 42.035156 -23.015625 39.875 -21.722656 37.09375 -19.140625 C 35.164062 -17.304688 33.257812 -15.460938 31.375 -13.609375 C 29.488281 -11.753906 27.570312 -9.890625 25.625 -8.015625 C 25.507812 -7.898438 25.128906 -7.472656 24.484375 -6.734375 C 23.835938 -6.003906 22.9375 -4.9375 21.78125 -3.53125 C 19.75 -1.132812 18.585938 0.0976562 18.296875 0.171875 C 18.109375 0.171875 17.992188 0.148438 17.953125 0.109375 L 17.953125 -0.171875 C 17.953125 -0.367188 17.960938 -0.503906 17.984375 -0.578125 C 17.984375 -0.867188 19.265625 -2.609375 21.828125 -5.796875 C 23.242188 -7.585938 24.34375 -8.984375 25.125 -9.984375 C 25.90625 -10.992188 26.390625 -11.648438 26.578125 -11.953125 C 28.878906 -15.585938 30.039062 -17.914062 30.0625 -18.9375 C 30.0625 -19.25 29.9375 -19.566406 29.6875 -19.890625 C 29.46875 -20.179688 29.210938 -20.328125 28.921875 -20.328125 C 27.304688 -20.328125 24.453125 -18.597656 20.359375 -15.140625 C 18.503906 -13.523438 16.75 -11.890625 15.09375 -10.234375 C 13.445312 -8.585938 11.898438 -6.882812 10.453125 -5.125 C 7.347656 -1.414062 5.570312 0.472656 5.125 0.546875 C 5.101562 0.546875 5.054688 0.453125 4.984375 0.265625 C 4.984375 -0.0664062 5.460938 -0.832031 6.421875 -2.03125 C 6.890625 -2.625 7.367188 -3.203125 7.859375 -3.765625 C 8.347656 -4.328125 8.835938 -4.90625 9.328125 -5.5 C 10.523438 -6.988281 11.632812 -8.445312 12.65625 -9.875 C 13.675781 -11.300781 14.628906 -12.75 15.515625 -14.21875 C 16.578125 -15.976562 17.351562 -17.5 17.84375 -18.78125 C 18.34375 -20.0625 18.617188 -21.128906 18.671875 -21.984375 C 18.671875 -23.097656 18.207031 -24.050781 17.28125 -24.84375 C 16.414062 -25.5625 15.316406 -25.957031 13.984375 -26.03125 C 11.941406 -26.03125 9.9375 -25.453125 7.96875 -24.296875 C 6.632812 -23.460938 5.253906 -22.332031 3.828125 -20.90625 C 3.453125 -20.476562 3.0625 -20.046875 2.65625 -19.609375 C 2.257812 -19.179688 1.859375 -18.753906 1.453125 -18.328125 L 1.09375 -18.5625 L 4.109375 -22.09375 C 5.648438 -23.75 7.144531 -24.984375 8.59375 -25.796875 C 10.53125 -26.972656 12.617188 -27.5625 14.859375 -27.5625 C 16.441406 -27.5625 17.78125 -27.140625 18.875 -26.296875 C 19.914062 -25.523438 20.4375 -24.429688 20.4375 -23.015625 C 20.4375 -21.472656 20.226562 -20.160156 19.8125 -19.078125 C 19.570312 -18.367188 19.164062 -17.503906 18.59375 -16.484375 C 18.03125 -15.472656 17.296875 -14.273438 16.390625 -12.890625 C 18.378906 -14.703125 20.125 -16.210938 21.625 -17.421875 C 23.132812 -18.640625 24.421875 -19.578125 25.484375 -20.234375 C 27.046875 -21.179688 28.492188 -21.675781 29.828125 -21.71875 C 30.148438 -21.71875 30.445312 -21.671875 30.71875 -21.578125 C 30.988281 -21.492188 31.222656 -21.347656 31.421875 -21.140625 C 31.648438 -20.960938 31.804688 -20.742188 31.890625 -20.484375 C 31.984375 -20.222656 32.046875 -19.921875 32.078125 -19.578125 C 32.078125 -18.398438 30.71875 -15.695312 28 -11.46875 C 30.757812 -14.132812 33.019531 -16.304688 34.78125 -17.984375 C 36.550781 -19.660156 37.84375 -20.847656 38.65625 -21.546875 C 40.007812 -22.628906 41.234375 -23.425781 42.328125 -23.9375 C 43.429688 -24.445312 44.445312 -24.726562 45.375 -24.78125 C 46.570312 -24.78125 47.191406 -23.972656 47.234375 -22.359375 Z M 47.234375 -22.359375 "/></g></g></g><g fill="#bf994d" fill-opacity="1"><g transform="translate(145.815454, 220.199165)"><g><path d="M 15.4375 -5.59375 C 15.4375 -5.414062 15.394531 -5.289062 15.3125 -5.21875 C 14.15625 -4.226562 13.164062 -3.410156 12.34375 -2.765625 C 11.53125 -2.117188 10.890625 -1.640625 10.421875 -1.328125 C 9.265625 -0.554688 8.222656 0.0234375 7.296875 0.421875 C 6.367188 0.816406 5.53125 1.015625 4.78125 1.015625 C 3.5625 1.015625 2.914062 0.0976562 2.84375 -1.734375 C 2.300781 -1.273438 1.523438 -0.785156 0.515625 -0.265625 C -0.460938 0.253906 -1.28125 0.515625 -1.9375 0.515625 C -2.382812 0.515625 -2.800781 0.398438 -3.1875 0.171875 C -3.570312 -0.015625 -3.765625 -0.285156 -3.765625 -0.640625 C -3.765625 -1.660156 -2.847656 -2.882812 -1.015625 -4.3125 C -0.0664062 -5.007812 0.804688 -5.539062 1.609375 -5.90625 C 2.410156 -6.269531 3.164062 -6.453125 3.875 -6.453125 C 4.707031 -6.453125 5.132812 -6.25 5.15625 -5.84375 C 5.15625 -5.382812 5.019531 -5.054688 4.75 -4.859375 C 4.476562 -4.648438 4.1875 -4.546875 3.875 -4.546875 C 3.875 -4.566406 3.859375 -4.613281 3.828125 -4.6875 C 3.804688 -4.726562 3.785156 -4.773438 3.765625 -4.828125 C 3.742188 -4.890625 3.710938 -4.96875 3.671875 -5.0625 C 3.535156 -5.375 3.257812 -5.550781 2.84375 -5.59375 C 1.945312 -5.59375 0.929688 -5.097656 -0.203125 -4.109375 C -1.359375 -3.160156 -1.9375 -2.300781 -1.9375 -1.53125 C -1.9375 -1.050781 -1.765625 -0.800781 -1.421875 -0.78125 C -0.222656 -0.78125 1.050781 -1.242188 2.40625 -2.171875 C 2.695312 -2.378906 3.207031 -2.878906 3.9375 -3.671875 C 4.382812 -4.234375 4.769531 -4.492188 5.09375 -4.453125 C 5.382812 -4.453125 5.53125 -4.335938 5.53125 -4.109375 C 5.53125 -3.898438 5.335938 -3.457031 4.953125 -2.78125 C 4.585938 -2.144531 4.40625 -1.679688 4.40625 -1.390625 C 4.40625 -0.554688 4.828125 -0.128906 5.671875 -0.109375 C 6.679688 -0.109375 8.304688 -0.875 10.546875 -2.40625 C 10.847656 -2.59375 11.367188 -2.957031 12.109375 -3.5 C 12.859375 -4.039062 13.859375 -4.773438 15.109375 -5.703125 C 15.148438 -5.742188 15.21875 -5.765625 15.3125 -5.765625 C 15.394531 -5.765625 15.4375 -5.707031 15.4375 -5.59375 Z M 15.4375 -5.59375 "/></g></g></g><g fill="#bf994d" fill-opacity="1"><g transform="translate(159.758969, 220.199165)"><g><path d="M 13.921875 -5.640625 C 13.921875 -5.566406 13.910156 -5.5 13.890625 -5.4375 C 13.878906 -5.382812 13.84375 -5.328125 13.78125 -5.265625 C 12.601562 -4.285156 11.59375 -3.460938 10.75 -2.796875 C 9.914062 -2.128906 9.25 -1.640625 8.75 -1.328125 C 6.332031 0.304688 4.207031 1.125 2.375 1.125 C 1.925781 1.125 1.484375 0.929688 1.046875 0.546875 C 0.691406 0.179688 0.488281 -0.269531 0.4375 -0.8125 C 0.4375 -1.269531 0.753906 -1.859375 1.390625 -2.578125 C 1.679688 -2.890625 1.96875 -3.195312 2.25 -3.5 C 2.539062 -3.8125 2.832031 -4.140625 3.125 -4.484375 C 2.894531 -4.484375 2.660156 -4.460938 2.421875 -4.421875 C 2.179688 -4.390625 1.914062 -4.351562 1.625 -4.3125 C 1.082031 -4.238281 0.65625 -4.203125 0.34375 -4.203125 L 0.203125 -4.203125 C -2.304688 -2.078125 -4.375 -0.664062 -6 0.03125 C -6.382812 0.03125 -6.578125 -0.0234375 -6.578125 -0.140625 C -6.578125 -0.316406 -6.476562 -0.519531 -6.28125 -0.75 C -5.625 -1 -4.8125 -1.425781 -3.84375 -2.03125 C -2.882812 -2.644531 -1.75 -3.460938 -0.4375 -4.484375 C -0.59375 -4.640625 -0.6875 -4.804688 -0.71875 -4.984375 C -0.71875 -5.421875 -0.332031 -6.054688 0.4375 -6.890625 C 0.820312 -7.296875 1.171875 -7.59375 1.484375 -7.78125 C 1.804688 -7.976562 2.09375 -8.097656 2.34375 -8.140625 C 2.707031 -8.140625 2.921875 -7.972656 2.984375 -7.640625 C 2.984375 -7.097656 2.597656 -6.472656 1.828125 -5.765625 C 2.304688 -5.878906 2.703125 -5.957031 3.015625 -6 C 3.335938 -6.050781 3.578125 -6.085938 3.734375 -6.109375 C 4.410156 -6.109375 4.75 -5.867188 4.75 -5.390625 C 4.75 -4.847656 4.265625 -4.140625 3.296875 -3.265625 C 2.390625 -2.421875 1.898438 -1.726562 1.828125 -1.1875 C 1.828125 -0.894531 1.953125 -0.601562 2.203125 -0.3125 C 2.429688 -0.101562 2.75 0.0351562 3.15625 0.109375 C 4.488281 0.109375 6.390625 -0.695312 8.859375 -2.3125 C 9.148438 -2.488281 9.6875 -2.859375 10.46875 -3.421875 C 11.25 -3.992188 12.285156 -4.785156 13.578125 -5.796875 L 13.78125 -5.796875 C 13.875 -5.796875 13.921875 -5.742188 13.921875 -5.640625 Z M 13.921875 -5.640625 "/></g></g></g><g fill="#bf994d" fill-opacity="1"><g transform="translate(172.209751, 220.199165)"><g><path d="M 14.078125 -5.46875 C 14.078125 -5.351562 13.410156 -4.738281 12.078125 -3.625 C 11.472656 -3.101562 10.941406 -2.675781 10.484375 -2.34375 C 10.035156 -2.019531 9.660156 -1.75 9.359375 -1.53125 C 7.941406 -0.53125 6.546875 0.203125 5.171875 0.671875 C 3.804688 1.148438 2.476562 1.398438 1.1875 1.421875 C 0.238281 1.421875 -0.53125 1.140625 -1.125 0.578125 C -1.6875 0.0976562 -1.96875 -0.546875 -1.96875 -1.359375 C -1.96875 -2.535156 -1.207031 -3.800781 0.3125 -5.15625 C 1.101562 -5.90625 1.929688 -6.460938 2.796875 -6.828125 C 3.671875 -7.203125 4.570312 -7.414062 5.5 -7.46875 C 6.195312 -7.46875 6.582031 -7.128906 6.65625 -6.453125 C 6.65625 -5.796875 6.144531 -5.148438 5.125 -4.515625 C 4.695312 -4.222656 4.289062 -4.015625 3.90625 -3.890625 C 3.519531 -3.765625 3.164062 -3.691406 2.84375 -3.671875 C 2.320312 -3.671875 2.0625 -3.789062 2.0625 -4.03125 C 2.0625 -4.6875 2.40625 -5.015625 3.09375 -5.015625 C 3.132812 -5.015625 3.179688 -5.007812 3.234375 -5 C 3.296875 -4.988281 3.382812 -4.960938 3.5 -4.921875 C 3.632812 -4.847656 3.847656 -4.789062 4.140625 -4.75 C 4.453125 -4.75 4.742188 -4.929688 5.015625 -5.296875 C 5.335938 -5.660156 5.5 -5.960938 5.5 -6.203125 C 5.5 -6.390625 5.203125 -6.503906 4.609375 -6.546875 C 3.597656 -6.546875 2.476562 -6.003906 1.25 -4.921875 C 0.144531 -3.878906 -0.441406 -2.90625 -0.515625 -2 C -0.515625 -1.414062 -0.21875 -0.882812 0.375 -0.40625 C 0.820312 0.0390625 1.523438 0.265625 2.484375 0.265625 C 3.835938 0.265625 5.472656 -0.265625 7.390625 -1.328125 C 8.023438 -1.640625 8.703125 -2.03125 9.421875 -2.5 C 10.148438 -2.976562 10.910156 -3.546875 11.703125 -4.203125 C 13.035156 -5.242188 13.75 -5.765625 13.84375 -5.765625 C 14 -5.765625 14.078125 -5.664062 14.078125 -5.46875 Z M 14.078125 -5.46875 "/></g></g></g><g fill="#bf994d" fill-opacity="1"><g transform="translate(184.796236, 220.199165)"><g><path d="M 4.28125 -8.109375 C 4.28125 -7.472656 3.828125 -7.15625 2.921875 -7.15625 C 2.035156 -7.15625 1.59375 -7.472656 1.59375 -8.109375 C 1.59375 -8.765625 2.035156 -9.09375 2.921875 -9.09375 C 3.828125 -9.09375 4.28125 -8.765625 4.28125 -8.109375 Z M 9.8125 -5.5625 C 9.8125 -5.425781 9.753906 -5.3125 9.640625 -5.21875 C 8.421875 -4.15625 7.4375 -3.316406 6.6875 -2.703125 C 5.9375 -2.097656 5.394531 -1.679688 5.0625 -1.453125 C 3.0625 0.015625 1.546875 0.75 0.515625 0.75 C -0.117188 0.75 -0.722656 0.554688 -1.296875 0.171875 C -1.804688 -0.191406 -2.085938 -0.644531 -2.140625 -1.1875 C -2.140625 -2.019531 -1.695312 -3.003906 -0.8125 -4.140625 C -0.0195312 -5.179688 0.679688 -5.769531 1.296875 -5.90625 C 1.585938 -5.90625 1.734375 -5.800781 1.734375 -5.59375 C 1.734375 -5.414062 1.367188 -4.921875 0.640625 -4.109375 C 0.00390625 -3.296875 -0.332031 -2.523438 -0.375 -1.796875 C -0.375 -0.890625 0.0390625 -0.425781 0.875 -0.40625 C 1.832031 -0.40625 4.6875 -2.171875 9.4375 -5.703125 C 9.476562 -5.742188 9.546875 -5.765625 9.640625 -5.765625 C 9.703125 -5.765625 9.757812 -5.695312 9.8125 -5.5625 Z M 9.8125 -5.5625 "/></g></g></g><g fill="#bf994d" fill-opacity="1"><g transform="translate(193.108068, 220.199165)"><g><path d="M 17.34375 -5.5625 C 17.34375 -5.425781 17.296875 -5.300781 17.203125 -5.1875 C 15.015625 -3.382812 13.476562 -2.1875 12.59375 -1.59375 C 10.53125 -0.1875 8.753906 0.515625 7.265625 0.515625 C 5.972656 0.515625 5.328125 -0.164062 5.328125 -1.53125 C 5.328125 -1.78125 5.351562 -2.085938 5.40625 -2.453125 C 5.46875 -2.828125 5.566406 -3.273438 5.703125 -3.796875 C 4.835938 -3.296875 3.957031 -2.78125 3.0625 -2.25 C 2.175781 -1.71875 1.257812 -1.140625 0.3125 -0.515625 C -1.03125 0.367188 -1.753906 0.8125 -1.859375 0.8125 C -1.890625 0.8125 -1.984375 0.765625 -2.140625 0.671875 C -2.273438 0.609375 -2.34375 0.53125 -2.34375 0.4375 C -2.34375 0.28125 -2.242188 0.0234375 -2.046875 -0.328125 C -1.859375 -0.691406 -1.539062 -1.191406 -1.09375 -1.828125 C -0.613281 -2.535156 -0.234375 -3.097656 0.046875 -3.515625 C 0.328125 -3.929688 0.523438 -4.226562 0.640625 -4.40625 C 0.554688 -4.539062 0.515625 -4.734375 0.515625 -4.984375 C 0.515625 -5.171875 0.660156 -5.363281 0.953125 -5.5625 C 1.265625 -5.75 1.515625 -5.851562 1.703125 -5.875 C 2.460938 -5.875 2.84375 -5.578125 2.84375 -4.984375 C 2.84375 -4.828125 2.484375 -4.253906 1.765625 -3.265625 C 1.421875 -2.828125 1.128906 -2.460938 0.890625 -2.171875 C 0.660156 -1.878906 0.453125 -1.640625 0.265625 -1.453125 C 4.566406 -4.398438 7.34375 -5.875 8.59375 -5.875 C 8.695312 -5.875 8.785156 -5.726562 8.859375 -5.4375 C 8.859375 -5.382812 8.507812 -4.960938 7.8125 -4.171875 C 7.488281 -3.765625 7.234375 -3.375 7.046875 -3 C 6.867188 -2.625 6.78125 -2.242188 6.78125 -1.859375 C 6.78125 -1.023438 7.359375 -0.609375 8.515625 -0.609375 C 9.378906 -0.609375 10.816406 -1.285156 12.828125 -2.640625 C 13.210938 -2.867188 14.59375 -3.890625 16.96875 -5.703125 C 17.039062 -5.722656 17.117188 -5.734375 17.203125 -5.734375 C 17.273438 -5.734375 17.320312 -5.675781 17.34375 -5.5625 Z M 17.34375 -5.5625 "/></g></g></g><g fill="#bf994d" fill-opacity="1"><g transform="translate(208.98536, 220.199165)"><g/></g></g><g fill="#bf994d" fill-opacity="1"><g transform="translate(217.059704, 220.199165)"><g><path d="M 31.15625 -23.453125 C 31.15625 -22.003906 30.492188 -20.453125 29.171875 -18.796875 C 27.847656 -17.148438 25.863281 -15.363281 23.21875 -13.4375 C 26.289062 -11.789062 27.828125 -10.242188 27.828125 -8.796875 C 27.828125 -6.304688 25.25 -3.859375 20.09375 -1.453125 C 15.34375 0.691406 11.007812 1.785156 7.09375 1.828125 C 3.925781 1.828125 2.015625 1.75 1.359375 1.59375 L -2.609375 6.109375 C -2.972656 6.535156 -3.328125 6.75 -3.671875 6.75 C -3.828125 6.75 -3.90625 6.640625 -3.90625 6.421875 C -3.90625 6.421875 -2.5 4.78125 0.3125 1.5 C -1.519531 1.0625 -2.4375 0.640625 -2.4375 0.234375 C -2.4375 -0.304688 -2.066406 -0.585938 -1.328125 -0.609375 C -1.171875 -0.609375 -0.984375 -0.59375 -0.765625 -0.5625 C -0.546875 -0.53125 -0.289062 -0.457031 0 -0.34375 C 0.25 -0.25 0.492188 -0.1875 0.734375 -0.15625 C 0.972656 -0.125 1.210938 -0.0820312 1.453125 -0.03125 L 7.359375 -7.90625 C 3.472656 -8.3125 1.53125 -9.207031 1.53125 -10.59375 C 1.53125 -11.851562 2.875 -12.925781 5.5625 -13.8125 C 6.175781 -14.039062 6.816406 -14.234375 7.484375 -14.390625 C 8.148438 -14.546875 8.847656 -14.691406 9.578125 -14.828125 L 12.828125 -15.375 C 15.929688 -19.445312 18.769531 -22.304688 21.34375 -23.953125 C 23.40625 -25.242188 25.691406 -25.914062 28.203125 -25.96875 C 28.992188 -25.96875 29.671875 -25.726562 30.234375 -25.25 C 30.847656 -24.800781 31.15625 -24.203125 31.15625 -23.453125 Z M 29.625 -22.46875 C 29.625 -23.050781 29.304688 -23.59375 28.671875 -24.09375 C 28.085938 -24.5 27.296875 -24.703125 26.296875 -24.703125 C 23.878906 -24.703125 21.335938 -23.445312 18.671875 -20.9375 C 18.210938 -20.488281 17.597656 -19.804688 16.828125 -18.890625 C 16.054688 -17.972656 15.117188 -16.800781 14.015625 -15.375 C 14.742188 -15.375 15.539062 -15.316406 16.40625 -15.203125 C 17.28125 -15.085938 18.238281 -14.90625 19.28125 -14.65625 C 19.84375 -14.476562 20.394531 -14.320312 20.9375 -14.1875 C 21.476562 -14.050781 22.035156 -13.90625 22.609375 -13.75 C 23.734375 -14.695312 24.695312 -15.535156 25.5 -16.265625 C 26.300781 -17.003906 26.960938 -17.65625 27.484375 -18.21875 C 28.867188 -19.800781 29.582031 -21.21875 29.625 -22.46875 Z M 20.640625 -12.71875 C 18.941406 -13.195312 17.46875 -13.550781 16.21875 -13.78125 C 14.976562 -14.007812 13.953125 -14.144531 13.140625 -14.1875 L 9.640625 -9.359375 C 11.742188 -9.503906 14.039062 -10.015625 16.53125 -10.890625 C 17.5 -11.210938 18.328125 -11.519531 19.015625 -11.8125 C 19.710938 -12.101562 20.253906 -12.40625 20.640625 -12.71875 Z M 26.46875 -8.171875 C 26.46875 -9.109375 25.753906 -10.050781 24.328125 -11 C 23.046875 -11.90625 22.078125 -12.359375 21.421875 -12.359375 C 17.722656 -10.296875 13.457031 -8.820312 8.625 -7.9375 L 2.4375 0.234375 C 3.882812 0.304688 5.6875 0.34375 7.84375 0.34375 C 12.03125 0.34375 16.144531 -0.515625 20.1875 -2.234375 C 24.375 -4.003906 26.46875 -5.984375 26.46875 -8.171875 Z M 11.953125 -14.125 C 11.472656 -14.164062 10.703125 -14.097656 9.640625 -13.921875 C 8.578125 -13.753906 7.21875 -13.476562 5.5625 -13.09375 C 3.664062 -12.644531 2.71875 -12.054688 2.71875 -11.328125 C 2.71875 -10.804688 3.519531 -10.3125 5.125 -9.84375 C 6.34375 -9.476562 7.441406 -9.296875 8.421875 -9.296875 Z M 11.953125 -14.125 "/></g></g></g><g fill="#bf994d" fill-opacity="1"><g transform="translate(246.812659, 220.199165)"><g><path d="M 15.4375 -5.59375 C 15.4375 -5.414062 15.394531 -5.289062 15.3125 -5.21875 C 14.15625 -4.226562 13.164062 -3.410156 12.34375 -2.765625 C 11.53125 -2.117188 10.890625 -1.640625 10.421875 -1.328125 C 9.265625 -0.554688 8.222656 0.0234375 7.296875 0.421875 C 6.367188 0.816406 5.53125 1.015625 4.78125 1.015625 C 3.5625 1.015625 2.914062 0.0976562 2.84375 -1.734375 C 2.300781 -1.273438 1.523438 -0.785156 0.515625 -0.265625 C -0.460938 0.253906 -1.28125 0.515625 -1.9375 0.515625 C -2.382812 0.515625 -2.800781 0.398438 -3.1875 0.171875 C -3.570312 -0.015625 -3.765625 -0.285156 -3.765625 -0.640625 C -3.765625 -1.660156 -2.847656 -2.882812 -1.015625 -4.3125 C -0.0664062 -5.007812 0.804688 -5.539062 1.609375 -5.90625 C 2.410156 -6.269531 3.164062 -6.453125 3.875 -6.453125 C 4.707031 -6.453125 5.132812 -6.25 5.15625 -5.84375 C 5.15625 -5.382812 5.019531 -5.054688 4.75 -4.859375 C 4.476562 -4.648438 4.1875 -4.546875 3.875 -4.546875 C 3.875 -4.566406 3.859375 -4.613281 3.828125 -4.6875 C 3.804688 -4.726562 3.785156 -4.773438 3.765625 -4.828125 C 3.742188 -4.890625 3.710938 -4.96875 3.671875 -5.0625 C 3.535156 -5.375 3.257812 -5.550781 2.84375 -5.59375 C 1.945312 -5.59375 0.929688 -5.097656 -0.203125 -4.109375 C -1.359375 -3.160156 -1.9375 -2.300781 -1.9375 -1.53125 C -1.9375 -1.050781 -1.765625 -0.800781 -1.421875 -0.78125 C -0.222656 -0.78125 1.050781 -1.242188 2.40625 -2.171875 C 2.695312 -2.378906 3.207031 -2.878906 3.9375 -3.671875 C 4.382812 -4.234375 4.769531 -4.492188 5.09375 -4.453125 C 5.382812 -4.453125 5.53125 -4.335938 5.53125 -4.109375 C 5.53125 -3.898438 5.335938 -3.457031 4.953125 -2.78125 C 4.585938 -2.144531 4.40625 -1.679688 4.40625 -1.390625 C 4.40625 -0.554688 4.828125 -0.128906 5.671875 -0.109375 C 6.679688 -0.109375 8.304688 -0.875 10.546875 -2.40625 C 10.847656 -2.59375 11.367188 -2.957031 12.109375 -3.5 C 12.859375 -4.039062 13.859375 -4.773438 15.109375 -5.703125 C 15.148438 -5.742188 15.21875 -5.765625 15.3125 -5.765625 C 15.394531 -5.765625 15.4375 -5.707031 15.4375 -5.59375 Z M 15.4375 -5.59375 "/></g></g></g><g fill="#bf994d" fill-opacity="1"><g transform="translate(260.756173, 220.199165)"><g><path d="M 17.34375 -5.5625 C 17.34375 -5.425781 17.296875 -5.300781 17.203125 -5.1875 C 15.015625 -3.382812 13.476562 -2.1875 12.59375 -1.59375 C 10.53125 -0.1875 8.753906 0.515625 7.265625 0.515625 C 5.972656 0.515625 5.328125 -0.164062 5.328125 -1.53125 C 5.328125 -1.78125 5.351562 -2.085938 5.40625 -2.453125 C 5.46875 -2.828125 5.566406 -3.273438 5.703125 -3.796875 C 4.835938 -3.296875 3.957031 -2.78125 3.0625 -2.25 C 2.175781 -1.71875 1.257812 -1.140625 0.3125 -0.515625 C -1.03125 0.367188 -1.753906 0.8125 -1.859375 0.8125 C -1.890625 0.8125 -1.984375 0.765625 -2.140625 0.671875 C -2.273438 0.609375 -2.34375 0.53125 -2.34375 0.4375 C -2.34375 0.28125 -2.242188 0.0234375 -2.046875 -0.328125 C -1.859375 -0.691406 -1.539062 -1.191406 -1.09375 -1.828125 C -0.613281 -2.535156 -0.234375 -3.097656 0.046875 -3.515625 C 0.328125 -3.929688 0.523438 -4.226562 0.640625 -4.40625 C 0.554688 -4.539062 0.515625 -4.734375 0.515625 -4.984375 C 0.515625 -5.171875 0.660156 -5.363281 0.953125 -5.5625 C 1.265625 -5.75 1.515625 -5.851562 1.703125 -5.875 C 2.460938 -5.875 2.84375 -5.578125 2.84375 -4.984375 C 2.84375 -4.828125 2.484375 -4.253906 1.765625 -3.265625 C 1.421875 -2.828125 1.128906 -2.460938 0.890625 -2.171875 C 0.660156 -1.878906 0.453125 -1.640625 0.265625 -1.453125 C 4.566406 -4.398438 7.34375 -5.875 8.59375 -5.875 C 8.695312 -5.875 8.785156 -5.726562 8.859375 -5.4375 C 8.859375 -5.382812 8.507812 -4.960938 7.8125 -4.171875 C 7.488281 -3.765625 7.234375 -3.375 7.046875 -3 C 6.867188 -2.625 6.78125 -2.242188 6.78125 -1.859375 C 6.78125 -1.023438 7.359375 -0.609375 8.515625 -0.609375 C 9.378906 -0.609375 10.816406 -1.285156 12.828125 -2.640625 C 13.210938 -2.867188 14.59375 -3.890625 16.96875 -5.703125 C 17.039062 -5.722656 17.117188 -5.734375 17.203125 -5.734375 C 17.273438 -5.734375 17.320312 -5.675781 17.34375 -5.5625 Z M 17.34375 -5.5625 "/></g></g></g><g fill="#bf994d" fill-opacity="1"><g transform="translate(135.716313, 241.658578)"><g><path d="M 2.96875 -5.515625 C 3.664062 -5.515625 4.210938 -5.34375 4.609375 -5 C 5.015625 -4.664062 5.21875 -4.207031 5.21875 -3.625 C 5.21875 -3.03125 5.015625 -2.566406 4.609375 -2.234375 C 4.210938 -1.898438 3.664062 -1.734375 2.96875 -1.734375 L 1.484375 -1.734375 L 1.484375 0 L 0.890625 0 L 0.890625 -5.515625 Z M 2.9375 -2.25 C 3.488281 -2.25 3.90625 -2.367188 4.1875 -2.609375 C 4.476562 -2.847656 4.625 -3.1875 4.625 -3.625 C 4.625 -4.070312 4.476562 -4.414062 4.1875 -4.65625 C 3.90625 -4.894531 3.488281 -5.015625 2.9375 -5.015625 L 1.484375 -5.015625 L 1.484375 -2.25 Z M 2.9375 -2.25 "/></g></g></g><g fill="#bf994d" fill-opacity="1"><g transform="translate(145.299686, 241.658578)"><g><path d="M 5.5 -5.515625 L 5.5 0 L 4.9375 0 L 4.9375 -2.546875 L 1.484375 -2.546875 L 1.484375 0 L 0.890625 0 L 0.890625 -5.515625 L 1.484375 -5.515625 L 1.484375 -3.0625 L 4.9375 -3.0625 L 4.9375 -5.515625 Z M 5.5 -5.515625 "/></g></g></g><g fill="#bf994d" fill-opacity="1"><g transform="translate(155.630538, 241.658578)"><g><path d="M 3.3125 0.046875 C 2.757812 0.046875 2.257812 -0.0703125 1.8125 -0.3125 C 1.375 -0.5625 1.03125 -0.894531 0.78125 -1.3125 C 0.53125 -1.738281 0.40625 -2.21875 0.40625 -2.75 C 0.40625 -3.28125 0.53125 -3.757812 0.78125 -4.1875 C 1.03125 -4.613281 1.375 -4.945312 1.8125 -5.1875 C 2.257812 -5.4375 2.757812 -5.5625 3.3125 -5.5625 C 3.851562 -5.5625 4.34375 -5.4375 4.78125 -5.1875 C 5.21875 -4.945312 5.5625 -4.613281 5.8125 -4.1875 C 6.070312 -3.757812 6.203125 -3.28125 6.203125 -2.75 C 6.203125 -2.21875 6.070312 -1.738281 5.8125 -1.3125 C 5.5625 -0.882812 5.21875 -0.550781 4.78125 -0.3125 C 4.34375 -0.0703125 3.851562 0.046875 3.3125 0.046875 Z M 3.3125 -0.46875 C 3.75 -0.46875 4.140625 -0.566406 4.484375 -0.765625 C 4.835938 -0.960938 5.113281 -1.234375 5.3125 -1.578125 C 5.507812 -1.929688 5.609375 -2.320312 5.609375 -2.75 C 5.609375 -3.1875 5.507812 -3.578125 5.3125 -3.921875 C 5.113281 -4.273438 4.835938 -4.550781 4.484375 -4.75 C 4.140625 -4.945312 3.75 -5.046875 3.3125 -5.046875 C 2.875 -5.046875 2.476562 -4.945312 2.125 -4.75 C 1.769531 -4.550781 1.488281 -4.273438 1.28125 -3.921875 C 1.082031 -3.578125 0.984375 -3.1875 0.984375 -2.75 C 0.984375 -2.320312 1.082031 -1.929688 1.28125 -1.578125 C 1.488281 -1.234375 1.769531 -0.960938 2.125 -0.765625 C 2.476562 -0.566406 2.875 -0.46875 3.3125 -0.46875 Z M 3.3125 -0.46875 "/></g></g></g><g fill="#bf994d" fill-opacity="1"><g transform="translate(166.165957, 241.658578)"><g><path d="M 1.96875 -5.015625 L 0.03125 -5.015625 L 0.03125 -5.515625 L 4.484375 -5.515625 L 4.484375 -5.015625 L 2.546875 -5.015625 L 2.546875 0 L 1.96875 0 Z M 1.96875 -5.015625 "/></g></g></g><g fill="#bf994d" fill-opacity="1"><g transform="translate(174.616318, 241.658578)"><g><path d="M 3.3125 0.046875 C 2.757812 0.046875 2.257812 -0.0703125 1.8125 -0.3125 C 1.375 -0.5625 1.03125 -0.894531 0.78125 -1.3125 C 0.53125 -1.738281 0.40625 -2.21875 0.40625 -2.75 C 0.40625 -3.28125 0.53125 -3.757812 0.78125 -4.1875 C 1.03125 -4.613281 1.375 -4.945312 1.8125 -5.1875 C 2.257812 -5.4375 2.757812 -5.5625 3.3125 -5.5625 C 3.851562 -5.5625 4.34375 -5.4375 4.78125 -5.1875 C 5.21875 -4.945312 5.5625 -4.613281 5.8125 -4.1875 C 6.070312 -3.757812 6.203125 -3.28125 6.203125 -2.75 C 6.203125 -2.21875 6.070312 -1.738281 5.8125 -1.3125 C 5.5625 -0.882812 5.21875 -0.550781 4.78125 -0.3125 C 4.34375 -0.0703125 3.851562 0.046875 3.3125 0.046875 Z M 3.3125 -0.46875 C 3.75 -0.46875 4.140625 -0.566406 4.484375 -0.765625 C 4.835938 -0.960938 5.113281 -1.234375 5.3125 -1.578125 C 5.507812 -1.929688 5.609375 -2.320312 5.609375 -2.75 C 5.609375 -3.1875 5.507812 -3.578125 5.3125 -3.921875 C 5.113281 -4.273438 4.835938 -4.550781 4.484375 -4.75 C 4.140625 -4.945312 3.75 -5.046875 3.3125 -5.046875 C 2.875 -5.046875 2.476562 -4.945312 2.125 -4.75 C 1.769531 -4.550781 1.488281 -4.273438 1.28125 -3.921875 C 1.082031 -3.578125 0.984375 -3.1875 0.984375 -2.75 C 0.984375 -2.320312 1.082031 -1.929688 1.28125 -1.578125 C 1.488281 -1.234375 1.769531 -0.960938 2.125 -0.765625 C 2.476562 -0.566406 2.875 -0.46875 3.3125 -0.46875 Z M 3.3125 -0.46875 "/></g></g></g><g fill="#bf994d" fill-opacity="1"><g transform="translate(185.151737, 241.658578)"><g><path d="M 4.78125 -2.75 L 5.34375 -2.75 L 5.34375 -0.65625 C 5.082031 -0.425781 4.773438 -0.25 4.421875 -0.125 C 4.066406 -0.0078125 3.695312 0.046875 3.3125 0.046875 C 2.757812 0.046875 2.265625 -0.0703125 1.828125 -0.3125 C 1.390625 -0.550781 1.039062 -0.882812 0.78125 -1.3125 C 0.53125 -1.738281 0.40625 -2.21875 0.40625 -2.75 C 0.40625 -3.28125 0.53125 -3.757812 0.78125 -4.1875 C 1.039062 -4.613281 1.390625 -4.945312 1.828125 -5.1875 C 2.265625 -5.4375 2.765625 -5.5625 3.328125 -5.5625 C 3.742188 -5.5625 4.128906 -5.492188 4.484375 -5.359375 C 4.835938 -5.222656 5.132812 -5.023438 5.375 -4.765625 L 5.015625 -4.390625 C 4.578125 -4.828125 4.019531 -5.046875 3.34375 -5.046875 C 2.894531 -5.046875 2.488281 -4.945312 2.125 -4.75 C 1.769531 -4.550781 1.488281 -4.273438 1.28125 -3.921875 C 1.082031 -3.578125 0.984375 -3.1875 0.984375 -2.75 C 0.984375 -2.320312 1.082031 -1.9375 1.28125 -1.59375 C 1.488281 -1.25 1.769531 -0.972656 2.125 -0.765625 C 2.488281 -0.566406 2.894531 -0.46875 3.34375 -0.46875 C 3.90625 -0.46875 4.382812 -0.609375 4.78125 -0.890625 Z M 4.78125 -2.75 "/></g></g></g><g fill="#bf994d" fill-opacity="1"><g transform="translate(195.167858, 241.658578)"><g><path d="M 4.65625 0 L 3.40625 -1.765625 C 3.257812 -1.753906 3.113281 -1.75 2.96875 -1.75 L 1.484375 -1.75 L 1.484375 0 L 0.890625 0 L 0.890625 -5.515625 L 2.96875 -5.515625 C 3.664062 -5.515625 4.210938 -5.34375 4.609375 -5 C 5.015625 -4.664062 5.21875 -4.207031 5.21875 -3.625 C 5.21875 -3.195312 5.109375 -2.832031 4.890625 -2.53125 C 4.671875 -2.238281 4.359375 -2.023438 3.953125 -1.890625 L 5.296875 0 Z M 2.9375 -2.25 C 3.488281 -2.25 3.90625 -2.367188 4.1875 -2.609375 C 4.476562 -2.847656 4.625 -3.1875 4.625 -3.625 C 4.625 -4.070312 4.476562 -4.414062 4.1875 -4.65625 C 3.90625 -4.894531 3.488281 -5.015625 2.9375 -5.015625 L 1.484375 -5.015625 L 1.484375 -2.25 Z M 2.9375 -2.25 "/></g></g></g><g fill="#bf994d" fill-opacity="1"><g transform="translate(204.79057, 241.658578)"><g><path d="M 4.359375 -1.46875 L 1.28125 -1.46875 L 0.625 0 L 0.015625 0 L 2.53125 -5.515625 L 3.109375 -5.515625 L 5.625 0 L 5.015625 0 Z M 4.140625 -1.9375 L 2.8125 -4.90625 L 1.5 -1.9375 Z M 4.140625 -1.9375 "/></g></g></g><g fill="#bf994d" fill-opacity="1"><g transform="translate(214.36608, 241.658578)"><g><path d="M 2.96875 -5.515625 C 3.664062 -5.515625 4.210938 -5.34375 4.609375 -5 C 5.015625 -4.664062 5.21875 -4.207031 5.21875 -3.625 C 5.21875 -3.03125 5.015625 -2.566406 4.609375 -2.234375 C 4.210938 -1.898438 3.664062 -1.734375 2.96875 -1.734375 L 1.484375 -1.734375 L 1.484375 0 L 0.890625 0 L 0.890625 -5.515625 Z M 2.9375 -2.25 C 3.488281 -2.25 3.90625 -2.367188 4.1875 -2.609375 C 4.476562 -2.847656 4.625 -3.1875 4.625 -3.625 C 4.625 -4.070312 4.476562 -4.414062 4.1875 -4.65625 C 3.90625 -4.894531 3.488281 -5.015625 2.9375 -5.015625 L 1.484375 -5.015625 L 1.484375 -2.25 Z M 2.9375 -2.25 "/></g></g></g><g fill="#bf994d" fill-opacity="1"><g transform="translate(223.949453, 241.658578)"><g><path d="M 5.5 -5.515625 L 5.5 0 L 4.9375 0 L 4.9375 -2.546875 L 1.484375 -2.546875 L 1.484375 0 L 0.890625 0 L 0.890625 -5.515625 L 1.484375 -5.515625 L 1.484375 -3.0625 L 4.9375 -3.0625 L 4.9375 -5.515625 Z M 5.5 -5.515625 "/></g></g></g><g fill="#bf994d" fill-opacity="1"><g transform="translate(234.280305, 241.658578)"><g><path d="M 2.78125 -1.90625 L 2.78125 0 L 2.21875 0 L 2.21875 -1.90625 L 0.015625 -5.515625 L 0.625 -5.515625 L 2.515625 -2.421875 L 4.40625 -5.515625 L 5 -5.515625 Z M 2.78125 -1.90625 "/></g></g></g></svg>